inDegrees=yes
name=ik_S44_A07_T01
DataType=double
version=3
OpenSimVersion=4.3-2021-08-27-4bc7ad9
endheader
time	pelvis_tilt	pelvis_list	pelvis_rotation	pelvis_tx	pelvis_ty	pelvis_tz	hip_flexion_r	hip_adduction_r	hip_rotation_r	knee_angle_r	knee_angle_r_beta	ankle_angle_r	subtalar_angle_r	mtp_angle_r	hip_flexion_l	hip_adduction_l	hip_rotation_l	knee_angle_l	knee_angle_l_beta	ankle_angle_l	subtalar_angle_l	mtp_angle_l	lumbar_extension	lumbar_bending	lumbar_rotation	arm_flex_r	arm_add_r	arm_rot_r	elbow_flex_r	pro_sup_r	wrist_flex_r	wrist_dev_r	arm_flex_l	arm_add_l	arm_rot_l	elbow_flex_l	pro_sup_l	wrist_flex_l	wrist_dev_l
24.13999999999957	-8.74562874449243	-3.530070866834706	13.20369647243379	0	0.9399999999999999	0	36.88627471620103	-10.73175228494931	-9.768974227262765	54.8977365611573	0.9581462548846643	0	0	0	36.88627471620103	-10.73175228494931	-9.768974227262765	54.8977365611573	0.9581462548846643	0	0	0	-5.057831904338436	-5.841249566107891	24.06770708369429	36.10064563756355	-4.037719831767611	2.356721007531668	42.98321785222376	136.3499604884619	0	0	41.65294882157372	2.063655246774034	1.935736268495004	38.53660974195682	131.898196519955	0	0
24.15999999999957	-8.769565502808726	-3.526294349192238	13.26193955248834	0	0.9399999999999999	0	36.88894391056288	-10.73092567990252	-9.769141910687766	54.89775897995953	0.9581466461665775	0	0	0	36.88894391056288	-10.73092567990252	-9.769141910687766	54.89775897995953	0.9581466461665775	0	0	0	-5.085228723707373	-5.824483673334404	23.99814568525694	36.19287248354284	-4.090593026172564	2.783606196731573	42.7181872537227	135.6158027605401	0	0	41.65518104821015	2.068532821365176	1.943083508579558	38.57866436371383	131.8583601520512	0	0
24.17999999999957	-8.781242417467338	-3.521565905734112	13.33944738031057	0	0.9399999999999999	0	36.89126138726522	-10.73020525104621	-9.769287879509315	54.89777836099465	0.9581469844294528	0	0	0	36.89126138726522	-10.73020525104621	-9.769287879509315	54.89777836099465	0.9581469844294528	0	0	0	-5.100189517400432	-5.80908848805327	23.92504752445068	36.24410850342677	-4.108167040180054	3.48499711349405	42.52994157860206	135.3449961200099	0	0	41.62662133507083	2.064475232911853	1.970740584982734	38.62218291612828	131.828120739347	0	0
24.19999999999957	-8.799751080181741	-3.526247885425744	13.43244451447605	0	0.9399999999999999	0	36.89334170780514	-10.72955939230734	-9.769418812535305	54.89779577165008	0.958147288302715	0	0	0	36.89334170780514	-10.72955939230734	-9.769418812535305	54.89779577165008	0.958147288302715	0	0	0	-5.123772732563863	-5.801561757375148	23.85468508402289	36.33742917865737	-4.132167602376084	4.215397527033995	42.36378212960508	135.2211038581698	0	0	41.60896808901987	2.053782352280466	2.03716163304541	38.67086665857004	131.7581734773144	0	0
24.21999999999957	-8.792178221374114	-3.53520900134618	13.51177450937166	0	0.9399999999999999	0	36.89636973113609	-10.72861822291952	-9.769609561685726	54.89782106863104	0.9581477298183235	0	0	0	36.89636973113609	-10.72861822291952	-9.769609561685726	54.89782106863104	0.9581477298183235	0	0	0	-5.122998720210451	-5.804289017037186	23.7842675819174	36.39493715395805	-4.1366787763589	4.858643845501708	42.13530166997881	134.8328712853117	0	0	41.54874477843678	2.027045516646086	2.09950717690004	38.74492604851616	131.7053090865696	0	0
24.23999999999957	-8.776910451001116	-3.531374806655272	13.56774239957812	0	0.9399999999999999	0	36.89949555432061	-10.72764818179009	-9.769806297741169	54.89784720381573	0.9581481859633471	0	0	0	36.89949555432061	-10.72764818179009	-9.769806297741169	54.89784720381573	0.9581481859633471	0	0	0	-5.110833903483312	-5.798372481350198	23.73149601905246	36.4106985755616	-4.17720834069203	5.304554010796633	41.99494758412467	134.4060602230018	0	0	41.48923231776639	2.015124574826935	2.114680402531409	38.76679301906848	131.7191103694561	0	0
24.25999999999957	-8.7585362117026	-3.527934300208261	13.60104826175077	0	0.9399999999999999	0	36.90164531219413	-10.72698498827053	-9.769941095575311	54.89786527007229	0.9581485012790075	0	0	0	36.90164531219413	-10.72698498827053	-9.769941095575311	54.89786527007229	0.9581485012790075	0	0	0	-5.093845817665465	-5.796826334246001	23.70798865682488	36.41338000795962	-4.165619791714809	5.453334464464847	41.68965800129217	134.3562270401907	0	0	41.43793455614561	2.012051964264368	2.124943937098803	38.78215331991446	131.7541289675466	0	0
24.27999999999957	-8.752821274477336	-3.546523020973985	13.63213967927033	0	0.9399999999999999	0	36.90385438604866	-10.72631255794355	-9.770078415126465	54.89788407051456	0.9581488294086259	0	0	0	36.90385438604866	-10.72631255794355	-9.770078415126465	54.89788407051456	0.9581488294086259	0	0	0	-5.09200057070333	-5.817223321101125	23.7199577804183	36.55935795476453	-4.170865418156255	5.334016724725292	41.48123062523281	134.7017052201503	0	0	41.44594960378021	2.022213089961645	2.143290798535928	38.80788577054144	131.831470483095	0	0
24.29999999999957	-8.734825782615866	-3.547035587842382	13.61783115583024	0	0.9399999999999999	0	36.90660615009598	-10.72547769698289	-9.770249109685761	54.89790755782434	0.958149239339514	0	0	0	36.90660615009598	-10.72547769698289	-9.770249109685761	54.89790755782434	0.958149239339514	0	0	0	-5.074075391048035	-5.823191685891661	23.73347893176386	36.69041976665712	-4.1073958640261	5.115827108365698	41.238639060882	135.1202472917542	0	0	41.36066121179176	1.990387589594965	2.017899058576017	38.87235068094449	131.9781611952782	0	0
24.31999999999957	-8.723615651324899	-3.54402997167313	13.61113063653049	0	0.9399999999999999	0	36.90909790193573	-10.72471761114294	-9.770404245238018	54.8979287006737	0.9581496083518486	0	0	0	36.90909790193573	-10.72471761114294	-9.770404245238018	54.8979287006737	0.9581496083518486	0	0	0	-5.061503093356289	-5.825364794495976	23.75946711781708	36.75721024792782	-4.006253826913095	4.870668696452213	41.05597226084386	135.3721189755127	0	0	41.31148826062277	1.973609502282687	1.959191510812345	38.91542867423648	132.0535822923023	0	0
24.33999999999957	-8.72175155808225	-3.527991374995389	13.6073692995336	0	0.9399999999999999	0	36.90989088506241	-10.72447823357789	-9.770453289516343	54.89793549040393	0.9581497268549964	0	0	0	36.90989088506241	-10.72447823357789	-9.770453289516343	54.89793549040393	0.9581497268549964	0	0	0	-5.056057705488048	-5.810438052270759	23.76257441436023	36.74045848095142	-3.897796435019719	4.774664349330529	40.9964911985458	135.360324915741	0	0	41.30704592555199	1.970715365404152	1.921217547207918	38.92788414969531	132.102227376942	0	0
